# Rhino

g Default
v -0.2848409712314606 0.0003150820266455412 -1.643082976341248
v -0.2802989482879639 0.0003150820266455412 -0.7990188598632813
v -0.262949138879776 0.0003150820266455412 -0.007060388568788767
v -0.2553076148033142 -0.1255685836076737 -1.643082976341248
v -0.2553076148033142 0.1261987537145615 -1.643082976341248
v -0.2511113286018372 -0.1359404176473618 -0.7990188598632813
v -0.2511113286018372 0.1365705877542496 -0.7990188598632813
v -0.2350822240114212 -0.1255685836076737 -0.007060388568788767
v -0.2350822240114212 0.1261987537145615 -0.007060388568788767
v -0.1770523637533188 0.0003150820266455412 0.1377805918455124
v -0.1770523637533188 0.0003150820266455412 -1.880075812339783
v -0.1712037920951843 -0.2322876155376434 -1.643082976341248
v -0.1712037920951843 0.2329177558422089 -1.643082976341248
v -0.1679920852184296 -0.2514522671699524 -0.7990188598632813
v -0.1679920852184296 0.2520824074745178 -0.7990188598632813
v -0.1557239443063736 -0.09603210538625717 0.1377805918455124
v -0.1557239443063736 0.09666227549314499 0.1377805918455124
v -0.1557239443063736 -0.2322876155376434 -0.007060388568788767
v -0.1557239443063736 0.2329177558422089 -0.007060388568788767
v -0.1557239443063736 -0.09603210538625717 -1.880075812339783
v -0.1557239443063736 0.09666227549314499 -1.880075812339783
v -0.09498573839664459 -0.1777113080024719 0.1377805918455124
v -0.09498573839664459 0.1783414781093597 0.1377805918455124
v -0.09498573839664459 -0.1777113080024719 -1.880075812339783
v -0.09498573839664459 0.1783414781093597 -1.880075812339783
v -0.0484987311065197 0.0003150820266455412 0.2236773818731308
v -0.0484987311065197 0.0003150820266455412 -1.95796000957489
v -0.04533350840210915 -0.3035949766635895 -1.643082976341248
v -0.04533350840210915 0.3042251169681549 -1.643082976341248
v -0.04359534382820129 -0.3286347985267639 -0.7990188598632813
v -0.04359534382820129 0.3292649388313294 -0.7990188598632813
v -0.03695587441325188 -0.05182763934135437 0.2236773818731308
v -0.03695587441325188 0.05245780199766159 0.2236773818731308
v -0.03695587441325188 -0.3035949766635895 -0.007060388568788767
v -0.03695587441325188 0.3042251169681549 -0.007060388568788767
v -0.03695587441325188 -0.05182763934135437 -1.95796000957489
v -0.03695587441325188 0.05245780199766159 -1.95796000957489
v -0.004084598273038864 -0.09603210538625717 0.2236773818731308
v -0.004084598273038864 0.09666227549314499 0.2236773818731308
v -0.004084598273038864 -0.2322876155376434 0.1377805918455124
v -0.004084598273038864 0.2329177558422089 0.1377805918455124
v -0.004084598273038864 -0.2322876155376434 -1.880075812339783
v -0.004084598273038864 0.2329177558422089 -1.880075812339783
v -0.004084598273038864 -0.09603210538625717 -1.95796000957489
v -0.004084598273038864 0.09666227549314499 -1.95796000957489
v 0.04511074349284172 -0.1255685836076737 0.2236773818731308
v 0.04511074349284172 0.1261987537145615 0.2236773818731308
v 0.04511074349284172 -0.1255685836076737 -1.95796000957489
v 0.04511074349284172 0.1261987537145615 -1.95796000957489
v 0.1031406074762344 0.0003150820266455412 0.2538403272628784
v 0.1031406074762344 -0.1359404176473618 0.2236773818731308
v 0.1031406074762344 0.1365705877542496 0.2236773818731308
v 0.1031406074762344 -0.2514522671699524 0.1377805918455124
v 0.1031406074762344 0.2520824074745178 0.1377805918455124
v 0.1031406074762344 -0.3286347985267639 -0.007060388568788767
v 0.1031406074762344 0.3292649388313294 -0.007060388568788767
v 0.1031406074762344 -0.355737715959549 -0.7990188598632813
v 0.1031406074762344 0.3563678562641144 -0.7990188598632813
v 0.1031406074762344 -0.3286347985267639 -1.643082976341248
v 0.1031406074762344 0.3292649388313294 -1.643082976341248
v 0.1031406074762344 -0.2514522671699524 -1.880075812339783
v 0.1031406074762344 0.2520824074745178 -1.880075812339783
v 0.1031406074762344 -0.1359404176473618 -1.95796000957489
v 0.1031406074762344 0.1365705877542496 -1.95796000957489
v 0.1031406074762344 0.0003150820266455412 -1.985309481620789
v 0.1611704677343369 -0.1255685836076737 0.2236773818731308
v 0.1611704677343369 0.1261987537145615 0.2236773818731308
v 0.1611704677343369 -0.1255685836076737 -1.95796000957489
v 0.1611704677343369 0.1261987537145615 -1.95796000957489
v 0.210365816950798 -0.09603210538625717 0.2236773818731308
v 0.210365816950798 0.09666227549314499 0.2236773818731308
v 0.210365816950798 -0.2322876155376434 0.1377805918455124
v 0.210365816950798 0.2329177558422089 0.1377805918455124
v 0.210365816950798 -0.2322876155376434 -1.880075812339783
v 0.210365816950798 0.2329177558422089 -1.880075812339783
v 0.210365816950798 -0.09603210538625717 -1.95796000957489
v 0.210365816950798 0.09666227549314499 -1.95796000957489
v 0.2432370930910111 -0.05182763934135437 0.2236773818731308
v 0.2432370930910111 0.05245780199766159 0.2236773818731308
v 0.2432370930910111 -0.3035949766635895 -0.007060388568788767
v 0.2432370930910111 0.3042251169681549 -0.007060388568788767
v 0.2432370930910111 -0.05182763934135437 -1.95796000957489
v 0.2432370930910111 0.05245780199766159 -1.95796000957489
v 0.249876543879509 -0.3286347985267639 -0.7990188598632813
v 0.249876543879509 0.3292649388313294 -0.7990188598632813
v 0.2516147196292877 -0.3035949766635895 -1.643082976341248
v 0.2516147196292877 0.3042251169681549 -1.643082976341248
v 0.2547799348831177 0.0003150820266455412 0.2236773818731308
v 0.2547799348831177 0.0003150820266455412 -1.95796000957489
v 0.3012669682502747 -0.1777113080024719 0.1377805918455124
v 0.3012669682502747 0.1783414781093597 0.1377805918455124
v 0.3012669682502747 -0.1777113080024719 -1.880075812339783
v 0.3012669682502747 0.1783414781093597 -1.880075812339783
v 0.3620051443576813 -0.09603210538625717 0.1377805918455124
v 0.3620051443576813 0.09666227549314499 0.1377805918455124
v 0.3620051443576813 -0.2322876155376434 -0.007060388568788767
v 0.3620051443576813 0.2329177558422089 -0.007060388568788767
v 0.3620051443576813 -0.09603210538625717 -1.880075812339783
v 0.3620051443576813 0.09666227549314499 -1.880075812339783
v 0.3742733001708984 -0.2514522671699524 -0.7990188598632813
v 0.3742733001708984 0.2520824074745178 -0.7990188598632813
v 0.3774849772453308 -0.2322876155376434 -1.643082976341248
v 0.3774849772453308 0.2329177558422089 -1.643082976341248
v 0.3833335638046265 0.0003150820266455412 0.1377805918455124
v 0.3833335638046265 0.0003150820266455412 -1.880075812339783
v 0.4413634240627289 -0.1255685836076737 -0.007060388568788767
v 0.4413634240627289 0.1261987537145615 -0.007060388568788767
v 0.457392543554306 -0.1359404176473618 -0.7990188598632813
v 0.457392543554306 0.1365705877542496 -0.7990188598632813
v 0.4615887999534607 -0.1255685836076737 -1.643082976341248
v 0.4615887999534607 0.1261987537145615 -1.643082976341248
v 0.4692303538322449 0.0003150820266455412 -0.007060388568788767
v 0.4865801632404327 0.0003150820266455412 -0.7990188598632813
v 0.4911221861839294 0.0003150820266455412 -1.643082976341248
vt 0 0
vt 0 0.125
vt 0 0.25
vt 0 0.375
vt 0 0.5
vt 0 0.625
vt 0 0.75
vt 0 0.875
vt 0 1
vt 0.0625 0
vt 0.0625 0.125
vt 0.0625 0.25
vt 0.0625 0.375
vt 0.0625 0.5
vt 0.0625 0.625
vt 0.0625 0.75
vt 0.0625 0.875
vt 0.0625 1
vt 0.125 0
vt 0.125 0.125
vt 0.125 0.25
vt 0.125 0.375
vt 0.125 0.5
vt 0.125 0.625
vt 0.125 0.75
vt 0.125 0.875
vt 0.125 1
vt 0.1875 0
vt 0.1875 0.125
vt 0.1875 0.25
vt 0.1875 0.375
vt 0.1875 0.5
vt 0.1875 0.625
vt 0.1875 0.75
vt 0.1875 0.875
vt 0.1875 1
vt 0.25 0
vt 0.25 0.125
vt 0.25 0.25
vt 0.25 0.375
vt 0.25 0.5
vt 0.25 0.625
vt 0.25 0.75
vt 0.25 0.875
vt 0.25 1
vt 0.3125 0
vt 0.3125 0.125
vt 0.3125 0.25
vt 0.3125 0.375
vt 0.3125 0.5
vt 0.3125 0.625
vt 0.3125 0.75
vt 0.3125 0.875
vt 0.3125 1
vt 0.375 0
vt 0.375 0.125
vt 0.375 0.25
vt 0.375 0.375
vt 0.375 0.5
vt 0.375 0.625
vt 0.375 0.75
vt 0.375 0.875
vt 0.375 1
vt 0.4375 0
vt 0.4375 0.125
vt 0.4375 0.25
vt 0.4375 0.375
vt 0.4375 0.5
vt 0.4375 0.625
vt 0.4375 0.75
vt 0.4375 0.875
vt 0.4375 1
vt 0.5 0
vt 0.5 0.125
vt 0.5 0.25
vt 0.5 0.375
vt 0.5 0.5
vt 0.5 0.625
vt 0.5 0.75
vt 0.5 0.875
vt 0.5 1
vt 0.5625 0
vt 0.5625 0.125
vt 0.5625 0.25
vt 0.5625 0.375
vt 0.5625 0.5
vt 0.5625 0.625
vt 0.5625 0.75
vt 0.5625 0.875
vt 0.5625 1
vt 0.625 0
vt 0.625 0.125
vt 0.625 0.25
vt 0.625 0.375
vt 0.625 0.5
vt 0.625 0.625
vt 0.625 0.75
vt 0.625 0.875
vt 0.625 1
vt 0.6875 0
vt 0.6875 0.125
vt 0.6875 0.25
vt 0.6875 0.375
vt 0.6875 0.5
vt 0.6875 0.625
vt 0.6875 0.75
vt 0.6875 0.875
vt 0.6875 1
vt 0.75 0
vt 0.75 0.125
vt 0.75 0.25
vt 0.75 0.375
vt 0.75 0.5
vt 0.75 0.625
vt 0.75 0.75
vt 0.75 0.875
vt 0.75 1
vt 0.8125 0
vt 0.8125 0.125
vt 0.8125 0.25
vt 0.8125 0.375
vt 0.8125 0.5
vt 0.8125 0.625
vt 0.8125 0.75
vt 0.8125 0.875
vt 0.8125 1
vt 0.875 0
vt 0.875 0.125
vt 0.875 0.25
vt 0.875 0.375
vt 0.875 0.5
vt 0.875 0.625
vt 0.875 0.75
vt 0.875 0.875
vt 0.875 1
vt 0.9375 0
vt 0.9375 0.125
vt 0.9375 0.25
vt 0.9375 0.375
vt 0.9375 0.5
vt 0.9375 0.625
vt 0.9375 0.75
vt 0.9375 0.875
vt 0.9375 1
vt 1 0
vt 1 0.125
vt 1 0.25
vt 1 0.375
vt 1 0.5
vt 1 0.625
vt 1 0.75
vt 1 0.875
vt 1 1
vn 0.1773580610752106 0.03926178067922592 -0.9833629131317139
vn 0.3521734178066254 0.07796072214841843 -0.9326821565628052
vn 0.7364150881767273 0.1665221154689789 -0.655715823173523
vn 0.9547974467277527 0.2160985469818115 -0.2041156738996506
vn 0.9763942360877991 0.2156138718128204 0.01284408383071423
vn 0.940488874912262 0.2063201367855072 0.2700234353542328
vn 0.7158890962600708 0.1584766656160355 0.6799911260604858
vn 0.3807198703289032 0.08428007364273071 0.9208415746688843
vn 0 1 0
vn 0.150198444724083 0.1116903945803642 -0.9823266863822937
vn 0.3254359364509583 0.1497317105531693 -0.9336336851119995
vn 0.6839380264282227 0.3201321065425873 -0.6555487513542175
vn 0.8871051073074341 0.4144171178340912 -0.2032313942909241
vn 0.9098392724990845 0.4148076772689819 0.01127305347472429
vn 0.8760322332382202 0.3974152207374573 0.2731823921203613
vn 0.6638758182525635 0.3044743239879608 0.6830551028251648
vn 0.3518437743186951 0.1618377566337585 0.921962320804596
vn 0.1949086934328079 0.04314696416258812 0.979871928691864
vn 0.1002102270722389 0.1669080853462219 -0.9808667302131653
vn 0.2473960965871811 0.2748121321201325 -0.9291251301765442
vn 0.5127000212669373 0.5794467329978943 -0.6335456967353821
vn 0.6511167883872986 0.7347971796989441 -0.1900525987148285
vn 0.6722337007522583 0.7403060793876648 0.006988007109612227
vn 0.6496608853340149 0.7118167877197266 0.266941249370575
vn 0.4975001513957977 0.5509928464889526 0.6700003743171692
vn 0.2671962380409241 0.2967295646667481 0.9168193936347961
vn 0.1650253832340241 0.1227159723639488 0.9786252379417419
vn 0.03515227138996124 0.1966750770807266 -0.9798383712768555
vn 0.1329976469278336 0.356681764125824 -0.9247106313705444
vn 0.2719533741474152 0.7421149611473084 -0.612622857093811
vn 0.3389030396938324 0.9238367080688477 -0.1779620796442032
vn 0.3519026935100555 0.936031699180603 0.003027376718819141
vn 0.3412226736545563 0.9029366970062256 0.2612899839878082
vn 0.2638275921344757 0.7055869698524475 0.6576793193817139
vn 0.143498420715332 0.3847483992576599 0.9117987155914307
vn 0.110068678855896 0.1833281219005585 0.9768703579902649
vn -0.03515226766467094 0.1966750770807266 -0.9798383712768555
vn 3.809816462307936e-09 0.3850183188915253 -0.9229089021682739
vn 0 0.7967929840087891 -0.6042523980140686
vn 3.818168892166796e-09 0.9848806262016296 -0.17323437333107
vn 3.786548408157842e-09 0.999998927116394 0.001472154050134122
vn 3.879159216069184e-09 0.9658494591712952 0.2591038048267365
vn 3.852448138275122e-09 0.7575518488883972 0.65277498960495
vn 1.91089966072866e-09 0.4151482582092285 0.9097537994384766
vn 0.03860212117433548 0.2159768044948578 0.9756351113319397
vn -0.1002102345228195 0.1669080853462219 -0.9808667898178101
vn -0.1329976469278336 0.3566817343235016 -0.9247106313705444
vn -0.2719533443450928 0.7421149015426636 -0.6126229166984558
vn -0.3389030396938324 0.9238367080688477 -0.1779620945453644
vn -0.3519027233123779 0.936031699180603 0.003027378115803003
vn -0.3412226736545563 0.9029366970062256 0.2612899839878082
vn -0.2638275921344757 0.7055869698524475 0.6576792597770691
vn -0.1434984505176544 0.3847483992576599 0.9117987155914307
vn -0.03860211744904518 0.2159768044948578 0.9756351113319397
vn -0.150198444724083 0.1116903945803642 -0.9823266863822937
vn -0.2473960816860199 0.2748121321201325 -0.9291251301765442
vn -0.5126999616622925 0.5794467329978943 -0.6335457563400269
vn -0.6511167883872986 0.7347972393035889 -0.1900526136159897
vn -0.6722336411476135 0.7403060793876648 0.006988011300563812
vn -0.6496608853340149 0.7118167877197266 0.2669412791728973
vn -0.4975001513957977 0.5509928464889526 0.6700003743171692
vn -0.2671962380409241 0.2967295944690704 0.9168193340301514
vn -0.1100686937570572 0.1833281069993973 0.9768703579902649
vn -0.1773580461740494 0.0392618253827095 -0.9833629131317139
vn -0.3254359364509583 0.1497317552566528 -0.9336336851119995
vn -0.6839379668235779 0.3201320767402649 -0.6555488109588623
vn -0.8871051073074341 0.4144170880317688 -0.2032314091920853
vn -0.9098393321037293 0.4148076176643372 0.01127305906265974
vn -0.8760322332382202 0.3974152505397797 0.2731823921203613
vn -0.6638758182525635 0.3044743537902832 0.6830551028251648
vn -0.3518437445163727 0.1618377864360809 0.921962320804596
vn -0.1650253832340241 0.1227159723639488 0.9786252379417419
vn -0.1773580461740494 -0.0392618253827095 -0.9833629131317139
vn -0.3532485067844391 1.901248269930989e-09 -0.9355295300483704
vn -0.7468427419662476 3.955050065229671e-09 -0.6650007367134094
vn -0.9779038429260254 0 -0.2090552747249603
vn -0.9999135136604309 0 0.01315347477793694
vn -0.9611688852310181 0 0.2759608030319214
vn -0.725051760673523 0 0.6886943578720093
vn -0.3820792734622955 0 0.9241295456886292
vn -0.1949086636304855 0.0431470163166523 0.979871928691864
vn -0.150198444724083 -0.1116903945803642 -0.9823266863822937
vn -0.3254359364509583 -0.1497317552566528 -0.9336336851119995
vn -0.6839380264282227 -0.3201320469379425 -0.6555488705635071
vn -0.8871051073074341 -0.4144170582294464 -0.2032313942909241
vn -0.9098393321037293 -0.4148075580596924 0.01127305906265974
vn -0.876032292842865 -0.3974151611328125 0.2731823921203613
vn -0.6638758182525635 -0.3044743239879608 0.6830551028251648
vn -0.3518437445163727 -0.1618377864360809 0.921962320804596
vn -0.1949086636304855 -0.0431470163166523 0.979871928691864
vn -0.1002102345228195 -0.1669080853462219 -0.9808667898178101
vn -0.2473960965871811 -0.2748121023178101 -0.9291251301765442
vn -0.5127000212669373 -0.5794467329978943 -0.6335457563400269
vn -0.6511168479919434 -0.7347971200942993 -0.1900526434183121
vn -0.6722337007522583 -0.7403060793876648 0.006988010834902525
vn -0.6496608853340149 -0.7118167877197266 0.2669412791728973
vn -0.4975001513957977 -0.5509927272796631 0.670000433921814
vn -0.2671962678432465 -0.2967295646667481 0.9168193340301514
vn -0.1650253683328629 -0.12271598726511 0.9786252379417419
vn -0.03515226766467094 -0.1966750770807266 -0.9798383712768555
vn -0.1329976618289948 -0.3566817045211792 -0.9247106313705444
vn -0.2719534039497376 -0.7421149015426636 -0.6126229166984558
vn -0.3389030396938324 -0.9238367080688477 -0.1779620945453644
vn -0.3519026935100555 -0.936031699180603 0.003027378115803003
vn -0.3412227332592011 -0.9029366374015808 0.2612900137901306
vn -0.2638276219367981 -0.7055869102478027 0.6576793193817139
vn -0.1434984505176544 -0.3847483694553375 0.9117987155914307
vn -0.1100686937570572 -0.1833281219005585 0.9768703579902649
vn 0.03515227138996124 -0.1966750770807266 -0.9798383712768555
vn -9.524541155769839e-10 -0.3850182890892029 \
 -0.9229089617729187
vn -1.987048303675465e-09 -0.7967929244041443 \
 -0.6042525172233582
vn -3.818168892166796e-09 -0.9848806262016296 -0.17323437333107
vn 0 -0.999998927116394 0.001472153584472835
vn 0 -0.9658494591712952 0.2591038048267365
vn 0 -0.7575518488883972 0.65277498960495
vn 0 -0.4151481688022614 0.9097537994384766
vn -0.03860211744904518 -0.2159768044948578 0.9756351113319397
vn 0.1002102270722389 -0.1669080853462219 -0.9808667302131653
vn 0.1329976469278336 -0.3566817045211792 -0.9247106313705444
vn 0.2719534337520599 -0.7421148419380188 -0.6126229763031006
vn 0.3389030694961548 -0.9238366484642029 -0.1779620796442032
vn 0.3519027233123779 -0.936031699180603 0.003027376718819141
vn 0.3412227332592011 -0.9029366374015808 0.2612900137901306
vn 0.2638276219367981 -0.7055869102478027 0.6576793789863586
vn 0.1434984505176544 -0.3847483694553375 0.9117987155914307
vn 0.03860212117433548 -0.2159768044948578 0.9756351113319397
vn 0.150198444724083 -0.1116903945803642 -0.9823266863822937
vn 0.2473961114883423 -0.2748121321201325 -0.9291251301765442
vn 0.5127000212669373 -0.5794466733932495 -0.6335457563400269
vn 0.6511168479919434 -0.7347971200942993 -0.1900526136159897
vn 0.6722337007522583 -0.7403060793876648 0.006988006178289652
vn 0.6496609449386597 -0.7118167281150818 0.2669412791728973
vn 0.4975001513957977 -0.5509927272796631 0.670000433921814
vn 0.2671962380409241 -0.2967295348644257 0.9168193340301514
vn 0.110068678855896 -0.1833281219005585 0.9768703579902649
vn 0.1773580610752106 -0.03926178067922592 -0.9833629131317139
vn 0.3254359662532806 -0.1497317105531693 -0.9336336851119995
vn 0.6839380264282227 -0.3201320469379425 -0.6555488109588623
vn 0.8871051073074341 -0.4144170880317688 -0.2032314091920853
vn 0.9098393321037293 -0.4148075580596924 0.01127305440604687
vn 0.876032292842865 -0.3974151909351349 0.2731823623180389
vn 0.6638758182525635 -0.3044742941856384 0.6830551028251648
vn 0.3518437445163727 -0.1618377566337585 0.921962320804596
vn 0.1650253683328629 -0.12271598726511 0.9786252379417419
vn 0 1 0
vn 0.3521734178066254 -0.07796072214841843 -0.9326821565628052
vn 0.7364150881767273 -0.1665221154689789 -0.655715823173523
vn 0.9547974467277527 -0.2160985469818115 -0.2041156738996506
vn 0.9763942360877991 -0.2156138718128204 0.01284408383071423
vn 0.940488874912262 -0.2063201367855072 0.2700234353542328
vn 0.7158890962600708 -0.1584766656160355 0.6799911260604858
vn 0.3807198703289032 -0.08428007364273071 0.9208415746688843
vn 0.1949086934328079 -0.04314696416258812 0.979871928691864
f 83/11/11 89/2/2 65/1/1
f 99/12/12 105/3/3 89/2/2 83/11/11
f 111/13/13 114/4/4 105/3/3 99/12/12
f 109/14/14 113/5/5 114/4/4 111/13/13
f 107/15/15 112/6/6 113/5/5 109/14/14
f 95/16/16 104/7/7 112/6/6 107/15/15
f 79/17/17 88/8/8 104/7/7 95/16/16
f 50/18/18 88/8/8 79/17/17
f 77/20/20 83/11/11 65/10/10
f 93/21/21 99/12/12 83/11/11 77/20/20
f 103/22/22 111/13/13 99/12/12 93/21/21
f 101/23/23 109/14/14 111/13/13 103/22/22
f 97/24/24 107/15/15 109/14/14 101/23/23
f 91/25/25 95/16/16 107/15/15 97/24/24
f 71/26/26 79/17/17 95/16/16 91/25/25
f 50/27/27 79/17/17 71/26/26
f 69/29/29 77/20/20 65/19/19
f 75/30/30 93/21/21 77/20/20 69/29/29
f 87/31/31 103/22/22 93/21/21 75/30/30
f 85/32/32 101/23/23 103/22/22 87/31/31
f 81/33/33 97/24/24 101/23/23 85/32/32
f 73/34/34 91/25/25 97/24/24 81/33/33
f 67/35/35 71/26/26 91/25/25 73/34/34
f 50/36/36 71/26/26 67/35/35
f 64/38/38 69/29/29 65/28/28
f 62/39/39 75/30/30 69/29/29 64/38/38
f 60/40/40 87/31/31 75/30/30 62/39/39
f 58/41/41 85/32/32 87/31/31 60/40/40
f 56/42/42 81/33/33 85/32/32 58/41/41
f 54/43/43 73/34/34 81/33/33 56/42/42
f 52/44/44 67/35/35 73/34/34 54/43/43
f 50/45/45 67/35/35 52/44/44
f 49/47/47 64/38/38 65/37/37
f 43/48/48 62/39/39 64/38/38 49/47/47
f 29/49/49 60/40/40 62/39/39 43/48/48
f 31/50/50 58/41/41 60/40/40 29/49/49
f 35/51/51 56/42/42 58/41/41 31/50/50
f 41/52/52 54/43/43 56/42/42 35/51/51
f 47/53/53 52/44/44 54/43/43 41/52/52
f 50/54/54 52/44/44 47/53/53
f 45/56/56 49/47/47 65/46/46
f 25/57/57 43/48/48 49/47/47 45/56/56
f 13/58/58 29/49/49 43/48/48 25/57/57
f 15/59/59 31/50/50 29/49/49 13/58/58
f 19/60/60 35/51/51 31/50/50 15/59/59
f 23/61/61 41/52/52 35/51/51 19/60/60
f 39/62/62 47/53/53 41/52/52 23/61/61
f 50/63/63 47/53/53 39/62/62
f 37/65/65 45/56/56 65/55/55
f 21/66/66 25/57/57 45/56/56 37/65/65
f 5/67/67 13/58/58 25/57/57 21/66/66
f 7/68/68 15/59/59 13/58/58 5/67/67
f 9/69/69 19/60/60 15/59/59 7/68/68
f 17/70/70 23/61/61 19/60/60 9/69/69
f 33/71/71 39/62/62 23/61/61 17/70/70
f 50/72/72 39/62/62 33/71/71
f 27/74/74 37/65/65 65/64/64
f 11/75/75 21/66/66 37/65/65 27/74/74
f 1/76/76 5/67/67 21/66/66 11/75/75
f 2/77/77 7/68/68 5/67/67 1/76/76
f 3/78/78 9/69/69 7/68/68 2/77/77
f 10/79/79 17/70/70 9/69/69 3/78/78
f 26/80/80 33/71/71 17/70/70 10/79/79
f 50/81/81 33/71/71 26/80/80
f 36/83/83 27/74/74 65/73/73
f 20/84/84 11/75/75 27/74/74 36/83/83
f 4/85/85 1/76/76 11/75/75 20/84/84
f 6/86/86 2/77/77 1/76/76 4/85/85
f 8/87/87 3/78/78 2/77/77 6/86/86
f 16/88/88 10/79/79 3/78/78 8/87/87
f 32/89/89 26/80/80 10/79/79 16/88/88
f 50/90/90 26/80/80 32/89/89
f 44/92/92 36/83/83 65/82/82
f 24/93/93 20/84/84 36/83/83 44/92/92
f 12/94/94 4/85/85 20/84/84 24/93/93
f 14/95/95 6/86/86 4/85/85 12/94/94
f 18/96/96 8/87/87 6/86/86 14/95/95
f 22/97/97 16/88/88 8/87/87 18/96/96
f 38/98/98 32/89/89 16/88/88 22/97/97
f 50/99/99 32/89/89 38/98/98
f 48/101/101 44/92/92 65/91/91
f 42/102/102 24/93/93 44/92/92 48/101/101
f 28/103/103 12/94/94 24/93/93 42/102/102
f 30/104/104 14/95/95 12/94/94 28/103/103
f 34/105/105 18/96/96 14/95/95 30/104/104
f 40/106/106 22/97/97 18/96/96 34/105/105
f 46/107/107 38/98/98 22/97/97 40/106/106
f 50/108/108 38/98/98 46/107/107
f 63/110/110 48/101/101 65/100/100
f 61/111/111 42/102/102 48/101/101 63/110/110
f 59/112/112 28/103/103 42/102/102 61/111/111
f 57/113/113 30/104/104 28/103/103 59/112/112
f 55/114/114 34/105/105 30/104/104 57/113/113
f 53/115/115 40/106/106 34/105/105 55/114/114
f 51/116/116 46/107/107 40/106/106 53/115/115
f 50/117/117 46/107/107 51/116/116
f 68/119/119 63/110/110 65/109/109
f 74/120/120 61/111/111 63/110/110 68/119/119
f 86/121/121 59/112/112 61/111/111 74/120/120
f 84/122/122 57/113/113 59/112/112 86/121/121
f 80/123/123 55/114/114 57/113/113 84/122/122
f 72/124/124 53/115/115 55/114/114 80/123/123
f 66/125/125 51/116/116 53/115/115 72/124/124
f 50/126/126 51/116/116 66/125/125
f 76/128/128 68/119/119 65/118/118
f 92/129/129 74/120/120 68/119/119 76/128/128
f 102/130/130 86/121/121 74/120/120 92/129/129
f 100/131/131 84/122/122 86/121/121 102/130/130
f 96/132/132 80/123/123 84/122/122 100/131/131
f 90/133/133 72/124/124 80/123/123 96/132/132
f 70/134/134 66/125/125 72/124/124 90/133/133
f 50/135/135 66/125/125 70/134/134
f 82/137/137 76/128/128 65/127/127
f 98/138/138 92/129/129 76/128/128 82/137/137
f 110/139/139 102/130/130 92/129/129 98/138/138
f 108/140/140 100/131/131 102/130/130 110/139/139
f 106/141/141 96/132/132 100/131/131 108/140/140
f 94/142/142 90/133/133 96/132/132 106/141/141
f 78/143/143 70/134/134 90/133/133 94/142/142
f 50/144/144 70/134/134 78/143/143
f 89/146/146 82/137/137 65/136/136
f 105/147/147 98/138/138 82/137/137 89/146/146
f 114/148/148 110/139/139 98/138/138 105/147/147
f 113/149/149 108/140/140 110/139/139 114/148/148
f 112/150/150 106/141/141 108/140/140 113/149/149
f 104/151/151 94/142/142 106/141/141 112/150/150
f 88/152/152 78/143/143 94/142/142 104/151/151
f 50/153/153 78/143/143 88/152/152
